<?xml version="1.0" standalone="no"?>
<!DOCTYPE svg PUBLIC "-//W3C//DTD SVG 20010904//EN"
 "http://www.w3.org/TR/2001/REC-SVG-20010904/DTD/svg10.dtd">
<svg version="1.0" xmlns="http://www.w3.org/2000/svg"
 width="256.000000pt" height="256.000000pt" viewBox="0 0 256.000000 256.000000"
 preserveAspectRatio="xMidYMid meet">
<metadata>
Created by potrace 1.16, written by Peter Selinger 2001-2019
</metadata>
<g transform="translate(0.000000,256.000000) scale(0.100000,-0.100000)"
fill="#000000" stroke="none">
<path d="M1231 1790 c-24 -5 -62 -18 -85 -29 -42 -21 -106 -74 -106 -88 0 -4
13 -14 29 -21 28 -12 33 -11 80 22 50 34 122 56 185 56 26 0 35 6 45 26 6 15
9 29 6 32 -9 10 -109 11 -154 2z"/>
<path d="M1981 1703 c-1 -7 3 -22 9 -35 5 -13 48 -122 96 -243 99 -252 111
-318 79 -416 -21 -63 -94 -141 -158 -169 -77 -34 -723 -215 -793 -223 -144
-15 -297 60 -376 182 -26 42 -39 50 -19 12 5 -9 6 -23 2 -29 -8 -14 -41 -6
-41 10 0 6 -6 8 -14 5 -12 -5 -13 1 -9 29 4 21 2 34 -5 34 -7 0 -9 11 -6 28 7
34 -29 86 -44 64 -7 -11 -10 -10 -16 3 -9 24 -7 32 4 15 8 -12 10 -10 10 9 0
15 -4 21 -14 18 -10 -4 -35 50 -92 195 -43 110 -80 196 -82 190 -3 -11 189
-514 258 -675 21 -48 58 -113 81 -143 24 -31 54 -72 66 -92 44 -74 97 -135
245 -286 43 -44 78 -83 78 -87 0 -5 7 -6 15 -3 8 4 17 -1 21 -9 3 -9 20 -19
37 -22 18 -4 47 -15 65 -26 18 -10 32 -14 32 -8 0 6 7 9 15 5 8 -3 15 0 15 5
0 7 11 9 24 7 14 -3 30 -1 38 3 7 4 18 3 25 -3 7 -6 13 -6 13 -2 0 5 21 10 48
11 26 1 66 4 90 7 24 3 41 2 38 -2 -3 -5 5 -7 17 -6 12 1 22 3 22 4 0 1 10 3
22 4 12 1 20 -1 17 -5 -2 -4 0 -10 5 -13 5 -4 12 -2 16 3 3 6 12 8 20 5 8 -4
17 1 21 9 4 10 14 14 31 11 37 -7 36 -7 61 1 18 6 21 10 10 17 -9 7 -6 8 11 5
29 -7 61 12 53 31 -4 11 -2 13 9 6 8 -4 22 -7 32 -6 9 2 17 -2 17 -8 0 -6 5
-8 13 -4 9 6 9 5 0 -8 -7 -8 -10 -18 -7 -21 7 -7 44 14 44 26 0 4 -5 5 -12 1
-7 -4 -8 -3 -4 5 6 9 11 9 22 0 7 -6 12 -14 9 -18 -2 -4 6 -7 18 -6 13 1 22 8
21 17 -1 10 6 13 22 10 14 -2 24 0 24 7 0 9 5 9 20 1 18 -10 24 -7 21 12 0 4
10 10 24 14 14 3 25 10 25 16 0 5 6 6 13 2 6 -4 9 -4 5 1 -11 12 11 35 28 28
8 -3 14 0 14 7 0 6 5 8 10 5 6 -4 10 6 10 24 0 17 7 36 15 43 9 7 22 19 30 26
13 11 15 11 15 -2 0 -9 6 -13 15 -10 8 3 13 11 12 16 -1 6 4 13 12 15 9 4 11
0 6 -16 -8 -25 -2 -27 20 -5 13 14 14 19 3 25 -10 7 -10 9 0 9 6 0 12 5 12 11
0 5 -4 8 -9 4 -5 -3 -13 -1 -16 5 -4 6 -3 10 2 9 19 -3 23 2 13 21 -8 15 -8
20 2 21 7 0 4 4 -7 9 -11 5 -14 9 -7 9 36 2 48 46 20 75 -15 14 -17 30 -13 92
3 45 1 74 -5 74 -6 0 -10 16 -10 35 0 20 -11 58 -25 85 -14 28 -21 50 -16 50
14 0 -15 91 -31 101 -7 5 -8 9 -3 9 6 0 6 3 0 8 -14 10 -50 65 -51 77 0 6 -10
31 -21 57 -12 26 -27 72 -33 103 -6 30 -16 53 -21 50 -5 -4 -9 2 -9 12 0 23
-53 150 -69 166 -6 6 -11 18 -11 27 0 49 -174 240 -218 240 -6 0 -13 6 -15 13
-4 9 -6 9 -6 0z"/>
<path d="M950 1633 c-61 -24 -79 -94 -37 -147 20 -24 33 -30 80 -34 51 -4 58
-2 81 23 56 60 16 152 -70 161 -22 2 -46 1 -54 -3z"/>
<path d="M1633 1603 c-28 -29 -28 -25 1 -87 13 -28 29 -70 36 -92 11 -37 17
-42 48 -48 20 -3 38 -3 41 -1 9 10 -21 117 -50 174 -38 76 -48 83 -76 54z"/>
<path d="M962 1372 c7 -47 53 -155 77 -176 14 -13 19 -12 43 9 l27 24 -23 43
c-13 24 -29 60 -36 80 -13 43 -13 43 -59 53 l-34 7 5 -40z"/>
<path d="M1660 1333 c-65 -24 -81 -103 -32 -153 38 -37 89 -47 131 -25 36 18
64 66 43 73 -6 2 -12 13 -11 25 0 21 1 21 9 2 8 -18 9 -18 9 -2 3 59 -82 104
-149 80z"/>
<path d="M1575 1128 c-36 -37 -95 -58 -170 -58 -70 -1 -70 -1 -86 -35 -15 -32
-15 -34 5 -39 60 -16 201 4 256 36 19 12 47 32 62 46 l28 25 -35 24 c-40 27
-35 27 -60 1z"/>
</g>
</svg>
